<?xml version="1.0" encoding="iso-8859-1"?>
<!-- Uploaded to: SVG Repo, www.svgrepo.com, Generator: SVG Repo Mixer Tools -->
<svg height="800px" width="800px" version="1.1" id="Layer_1" xmlns="http://www.w3.org/2000/svg" xmlns:xlink="http://www.w3.org/1999/xlink" 
	 viewBox="0 0 512 512" xml:space="preserve">
<path style="fill:#FEDCA4;" d="M172.853,256c0-96.806,60.558-179.455,145.851-212.17c-25.252-9.686-52.667-15.007-81.327-15.007
	C111.91,28.822,10.199,130.533,10.199,256S111.91,483.178,237.377,483.178c28.661,0,56.075-5.322,81.327-15.007
	C233.411,435.456,172.853,352.807,172.853,256z"/>
<g>
	<polygon style="fill:#EDB2D8;" points="347.802,131.312 365.603,167.382 405.408,173.166 376.605,201.241 383.404,240.886 
		347.802,222.168 312.2,240.886 318.998,201.241 290.196,173.166 330,167.382 	"/>
	<polygon style="fill:#EDB2D8;" points="444.195,271.114 461.996,307.183 501.801,312.967 472.997,341.044 479.797,380.687 
		444.195,361.971 408.592,380.687 415.391,341.044 386.589,312.967 426.393,307.183 	"/>
</g>
<path d="M237.377,493.377c-63.405,0-123.017-24.691-167.851-69.526S0,319.406,0,256S24.691,132.983,69.526,88.148
	s104.446-69.526,167.851-69.526c29.256,0,57.847,5.277,84.979,15.683c3.943,1.513,6.547,5.3,6.547,9.523s-2.604,8.01-6.547,9.523
	C239.035,85.311,183.053,166.749,183.053,256s55.982,170.689,139.304,202.647c3.943,1.513,6.547,5.299,6.547,9.523
	s-2.604,8.01-6.547,9.523C295.224,488.1,266.634,493.377,237.377,493.377z M237.377,39.021
	C117.736,39.021,20.398,136.357,20.398,256s97.337,216.979,216.979,216.979c17.96,0,35.641-2.173,52.827-6.481
	c-33.699-17.57-62.674-42.975-84.766-74.53C177.45,351.99,162.655,304.972,162.655,256s14.795-95.99,42.784-135.969
	c22.091-31.554,51.066-56.961,84.766-74.53C273.019,41.194,255.338,39.021,237.377,39.021z"/>
<path d="M383.403,251.085c-1.624,0-3.253-0.387-4.745-1.172l-30.857-16.222l-30.857,16.222c-3.435,1.807-7.6,1.506-10.741-0.776
	s-4.714-6.149-4.058-9.976l5.893-34.359l-24.965-24.333c-2.78-2.71-3.78-6.763-2.58-10.455c1.2-3.692,4.392-6.383,8.234-6.942
	l34.499-5.013l15.427-31.261c1.719-3.482,5.264-5.686,9.147-5.686s7.427,2.204,9.147,5.685l15.428,31.262l34.498,5.013
	c3.843,0.558,7.033,3.249,8.234,6.942c1.199,3.692,0.199,7.745-2.58,10.455l-24.965,24.333l5.893,34.359
	c0.657,3.826-0.917,7.693-4.058,9.976C387.623,250.428,385.518,251.085,383.403,251.085z M347.802,211.969
	c1.631,0,3.261,0.391,4.746,1.172l17.311,9.101l-3.307-19.275c-0.567-3.309,0.53-6.685,2.933-9.028l14.005-13.651l-19.353-2.812
	c-3.323-0.482-6.194-2.569-7.68-5.579l-8.655-17.538l-8.654,17.538c-1.486,3.011-4.357,5.098-7.68,5.58l-19.354,2.812l14.005,13.651
	c2.403,2.343,3.5,5.719,2.933,9.028l-3.307,19.275l17.311-9.101C344.541,212.359,346.171,211.969,347.802,211.969z"/>
<path d="M479.796,390.887c-1.624,0-3.253-0.387-4.745-1.172l-30.857-16.222l-30.857,16.222c-3.435,1.807-7.599,1.506-10.741-0.776
	c-3.14-2.283-4.714-6.149-4.058-9.976l5.893-34.359l-24.964-24.333c-2.78-2.71-3.78-6.763-2.58-10.455
	c1.2-3.692,4.392-6.383,8.233-6.942l34.499-5.014l15.427-31.261c1.719-3.481,5.264-5.685,9.147-5.685s7.427,2.204,9.147,5.685
	l15.428,31.261l34.499,5.014c3.842,0.558,7.033,3.249,8.233,6.942s0.199,7.745-2.58,10.455l-24.964,24.333l5.892,34.359
	c0.656,3.827-0.917,7.693-4.058,9.976C484.015,390.23,481.91,390.887,479.796,390.887z M444.195,351.771
	c1.631,0,3.261,0.391,4.746,1.172l17.311,9.101l-3.306-19.275c-0.567-3.309,0.53-6.685,2.933-9.027l14.005-13.651l-19.355-2.813
	c-3.322-0.482-6.193-2.569-7.679-5.579l-8.655-17.538l-8.654,17.538c-1.486,3.01-4.357,5.097-7.679,5.579l-19.355,2.813
	l14.005,13.651c2.403,2.343,3.5,5.719,2.933,9.027l-3.307,19.275l17.311-9.101C440.933,352.161,442.564,351.771,444.195,351.771z"/>
<path d="M190.323,423.27c-3.106,0-6.172-1.413-8.176-4.09c-13.684-18.293-24.974-38.655-33.554-60.521
	c-2.058-5.243,0.525-11.162,5.768-13.22c5.246-2.061,11.162,0.525,13.22,5.768c7.915,20.165,18.311,38.924,30.902,55.754
	c3.374,4.51,2.452,10.902-2.058,14.277C194.593,422.608,192.449,423.27,190.323,423.27z"/>
<path d="M222.872,458.468c-2.377,0-4.766-0.826-6.698-2.511c-4.823-4.206-9.557-8.698-14.069-13.352
	c-3.922-4.044-3.821-10.501,0.224-14.423c4.043-3.921,10.501-3.82,14.422,0.224c4.117,4.247,8.434,8.343,12.828,12.175
	c4.246,3.702,4.688,10.145,0.985,14.39C228.547,457.285,225.717,458.468,222.872,458.468z"/>
</svg>